<?xml version="1.0" standalone="no"?>
<!DOCTYPE svg PUBLIC "-//W3C//DTD SVG 20010904//EN"
 "http://www.w3.org/TR/2001/REC-SVG-20010904/DTD/svg10.dtd">
<svg version="1.0" xmlns="http://www.w3.org/2000/svg"
 width="50.000000pt" height="50.000000pt" viewBox="0 0 50.000000 50.000000"
 preserveAspectRatio="xMidYMid meet">

<g transform="translate(0.000000,50.000000) scale(0.100000,-0.100000)"
fill="#000000" stroke="none">
<path d="M0 250 l0 -250 138 0 139 0 17 38 c28 60 48 78 94 84 55 8 75 24 70
59 -3 21 1 30 19 38 22 10 23 14 23 146 l0 135 -250 0 -250 0 0 -250z m205
118 c38 -17 44 -56 13 -83 l-25 -21 29 -17 c31 -18 37 -51 14 -83 -12 -16 -29
-20 -105 -22 l-91 -4 0 121 0 121 70 0 c38 0 81 -5 95 -12z m226 -88 c28 -23
13 -26 -27 -6 -19 11 -33 12 -46 5 -32 -17 -20 -37 35 -57 42 -16 53 -25 55
-45 3 -21 -3 -27 -33 -37 -48 -16 -115 2 -115 31 0 15 27 10 40 -7 20 -23 75
-15 75 11 0 15 -13 24 -52 38 -59 22 -71 39 -43 67 26 26 81 26 111 0z"/>
<path d="M88 364 c-5 -4 -8 -27 -8 -51 l0 -43 43 0 c62 0 101 48 64 78 -17 14
-90 26 -99 16z"/>
<path d="M88 254 c-5 -4 -8 -29 -8 -56 l0 -48 43 0 c23 0 53 7 65 16 25 17 29
56 7 74 -18 15 -97 25 -107 14z"/>
</g>
</svg>
